<?xml version="1.0" encoding="UTF-8"?>
<svg id="Layer_1" data-name="Layer 1" xmlns="http://www.w3.org/2000/svg" viewBox="0 0 1355.15 107.28">
  <defs>
    <style>
      .cls-1 {
        fill: #fff;
      }
    </style>
  </defs>
  <path class="cls-1" d="M53.17,4.95c-.31-2.47-2.47-4.02-4.95-3.71h-13.6c-2.47-.31-4.64,1.55-4.95,3.71L.3,102.03c-.93,2.47.31,3.71,3.09,3.71h12.68c2.78,0,4.02-1.55,4.64-3.71,0,0,1.55-6.49,4.02-16.08h32.15c2.47,9.28,4.02,16.08,4.02,16.08.62,2.47,1.86,3.71,4.64,3.71h14.22c2.78,0,3.71-1.55,2.78-3.71L53.17,4.95ZM29.06,68.95c5.57-21.64,11.75-46.07,11.75-47.3,0,1.24,6.18,25.66,11.75,47.3h-23.5Z"/>
  <path class="cls-1" d="M251.04,1.24h-12.99c-1.86,0-3.09.62-3.71,1.86l-23.19,54.1c-2.16,4.64-4.02,10.51-4.02,10.51-1.24-3.71-2.47-7.11-4.02-10.82L179.01,3.4c-.62-1.55-1.86-2.47-3.4-2.16h-12.37c-2.78,0-3.71,1.24-3.71,3.71v97.08c0,2.47.93,3.71,3.71,3.71h12.37c2.78,0,3.71-1.24,3.71-3.71v-58.12c.93,4.02,2.16,7.73,3.71,11.44l13.29,30.92c.62,2.16,2.78,4.02,4.95,3.71h11.13c2.47,0,4.64-1.55,5.26-3.71l12.06-28.75c1.55-4.02,4.33-13.6,4.64-13.91v58.43c0,2.47.93,3.71,3.71,3.71h12.99c2.78,0,3.71-1.24,3.71-3.71V4.95c0-2.47-.93-3.71-3.71-3.71Z"/>
  <path class="cls-1" d="M421.09,1.24h-12.99c-1.86,0-3.09.62-3.71,1.86l-23.19,54.1c-2.16,4.64-4.02,10.51-4.02,10.51-1.24-3.71-2.47-7.11-4.02-10.82l-24.12-53.8c-.62-1.55-1.86-2.47-3.4-2.16h-12.37c-2.78,0-3.71,1.24-3.71,3.71v97.08c0,2.47.93,3.71,3.71,3.71h12.37c2.78,0,3.71-1.24,3.71-3.71v-57.81c.93,4.02,2.16,7.73,3.71,11.44l13.29,30.92c.62,2.16,2.78,4.02,4.95,3.71h11.13c2.47,0,4.64-1.55,5.26-3.71l12.06-28.75c1.55-4.02,4.33-13.6,4.64-13.91v58.43c0,2.47.93,3.71,3.71,3.71h12.99c2.78,0,3.71-1.24,3.71-3.71V4.95c0-2.47-.93-3.71-3.71-3.71Z"/>
  <path class="cls-1" d="M571.03,1.24h-13.6c-2.78,0-3.71,1.24-3.71,4.02v73.27c0,7.73-6.49,11.44-17,11.44s-16.7-3.71-16.7-11.44V5.26c0-2.78-1.24-4.02-3.71-4.02h-13.6c-2.78,0-4.02,1.24-4.02,4.02v76.98c0,12.99,9.58,25.04,38.34,25.04s38.34-12.06,38.34-25.04V5.26c-.62-2.78-1.55-4.02-4.33-4.02Z"/>
  <path class="cls-1" d="M652.65,106.05h12.37c2.78,0,3.71-1.24,3.71-3.71v-61.83c1.55,4.33,3.71,8.66,6.18,12.37l30.3,51.01c.93,1.55,1.55,1.86,3.71,1.86h12.37c2.78,0,3.71-1.24,3.71-3.71V4.95c0-2.47-.93-3.71-3.71-3.71h-12.37c-2.78,0-3.71,1.24-3.71,3.71v61.52c-1.55-3.71-3.4-7.42-5.26-10.82l-31.54-52.87c-.62-1.24-1.86-1.86-3.4-1.55h-12.37c-2.78,0-3.71,1.24-3.71,3.71v97.08c0,2.78.93,4.02,3.71,4.02Z"/>
  <path class="cls-1" d="M831.66,1.24h-13.6c-2.78,0-3.71,1.24-3.71,4.02v96.77c0,2.78.93,4.02,3.71,4.02h13.6c2.78,0,3.71-1.24,3.71-4.02V5.26c.31-2.78-.62-4.02-3.71-4.02Z"/>
  <path class="cls-1" d="M982.23,1.24h-66.16c-2.78,0-4.02.93-4.02,3.71v9.58c0,2.78,1.24,3.71,4.02,3.71h22.26v83.48c0,2.78,1.24,4.02,4.02,4.02h13.6c2.78,0,3.71-1.24,3.71-4.02V18.24h22.26c2.78,0,4.02-.93,4.02-3.71V4.95c.31-2.78-.93-3.71-3.71-3.71Z"/>
  <path class="cls-1" d="M1064.78,1.24h-13.6c-2.78,0-3.71,1.24-3.71,4.02v96.77c0,2.78.93,4.02,3.71,4.02h13.6c2.78,0,3.71-1.24,3.71-4.02V5.26c0-2.78-.93-4.02-3.71-4.02Z"/>
  <path class="cls-1" d="M1172.06,0c-28.44,0-38.34,12.06-38.34,25.04v56.89c0,12.99,9.58,25.04,38.34,25.04s38.34-12.06,38.34-25.04V25.04c0-12.99-9.89-25.04-38.34-25.04ZM1189.07,78.22c0,7.73-6.49,11.44-17,11.44s-16.7-3.71-16.7-11.44V28.75c0-7.73,6.18-11.44,16.7-11.44s17,3.71,17,11.44v49.47Z"/>
  <path class="cls-1" d="M1351.69,1.24h-12.37c-2.78,0-3.71,1.24-3.71,3.71v61.52c-1.55-3.71-3.4-7.42-5.26-10.82l-31.84-52.87c-.62-1.24-1.86-1.86-3.4-1.55h-12.37c-2.78,0-3.71,1.24-3.71,3.71v97.08c0,2.47.93,3.71,3.71,3.71h12.37c2.78,0,3.71-1.24,3.71-3.71v-61.52c1.86,4.33,3.71,8.66,6.18,12.37l30.3,51.01c.93,1.55,1.55,1.86,3.71,1.86h12.37c2.78,0,3.71-1.24,3.71-3.71V4.95c.31-2.47-.62-3.71-3.4-3.71Z"/>
</svg>